<svg width="33" height="32" viewBox="0 0 33 32" fill="none" xmlns="http://www.w3.org/2000/svg">
<ellipse cx="16.5" cy="28.5" rx="9" ry="1.5" fill="#72777B"/>
<path d="M16.5 2.66699C19.3222 2.66699 21.8058 3.65601 23.9502 5.63379C26.0944 7.61146 27.1669 10.2666 27.167 13.5996C27.167 14.5996 26.9719 15.65 26.583 16.75C26.1941 17.85 25.6282 18.9947 24.8838 20.1836C24.1394 21.3725 23.2107 22.5996 22.0996 23.8662C20.9885 25.1329 19.711 26.4333 18.2666 27.7666C18.0222 27.9888 17.7446 28.1555 17.4336 28.2666C17.1225 28.3777 16.8111 28.4336 16.5 28.4336C16.1889 28.4336 15.8775 28.3777 15.5664 28.2666C15.2554 28.1555 14.9778 27.9888 14.7334 27.7666C13.289 26.4333 12.0115 25.1329 10.9004 23.8662C9.78944 22.5997 8.86157 21.3723 8.11719 20.1836C7.37276 18.9947 6.80588 17.85 6.41699 16.75C6.0281 15.65 5.83301 14.5996 5.83301 13.5996C5.8331 10.2666 6.90568 7.61145 9.0498 5.63379C11.1942 3.65602 13.6778 2.667 16.5 2.66699ZM16 6.33301C15.8667 6.33301 15.7504 6.38351 15.6504 6.4834C15.5505 6.58332 15.5001 6.69981 15.5 6.83301C15.5 6.96634 15.5472 7.08359 15.6416 7.18359C15.736 7.28352 15.8501 7.33301 15.9834 7.33301V8.36621C15.5168 8.42176 15.0836 8.53356 14.6836 8.7002C14.2836 8.86685 13.9108 9.08846 13.5664 9.36621L12.8496 8.65039C12.9495 8.55047 12.9999 8.43074 13 8.29199C13 8.1531 12.9496 8.03359 12.8496 7.93359C12.7496 7.83364 12.6301 7.7832 12.4912 7.7832C12.3526 7.78331 12.2337 7.83377 12.1338 7.93359L11.4336 8.63379C11.3338 8.73366 11.2833 8.85256 11.2832 8.99121C11.2832 9.13007 11.3336 9.24962 11.4336 9.34961C11.5336 9.44958 11.6499 9.49674 11.7832 9.49121C11.9165 9.48566 12.0338 9.4385 12.1338 9.34961L12.8662 10.083C12.5996 10.4274 12.3802 10.8002 12.208 11.2002C12.0359 11.6001 11.9218 12.0334 11.8662 12.5H10.833C10.833 12.3668 10.7834 12.2503 10.6836 12.1504C10.5836 12.0504 10.4663 12 10.333 12C10.1998 12.0001 10.0833 12.0505 9.9834 12.1504C9.88351 12.2504 9.83301 12.3667 9.83301 12.5V13.5C9.83301 13.6333 9.88351 13.7496 9.9834 13.8496C10.0833 13.9495 10.1998 13.9999 10.333 14C10.4663 14 10.5836 13.9496 10.6836 13.8496C10.7834 13.7497 10.833 13.6332 10.833 13.5H11.8662C11.9218 13.9666 12.0336 14.3998 12.2002 14.7998C12.3669 15.1998 12.5884 15.5726 12.8662 15.917L12.1338 16.6504C12.0338 16.5615 11.9165 16.5143 11.7832 16.5088C11.6499 16.5033 11.5336 16.5504 11.4336 16.6504C11.3336 16.7504 11.2832 16.8699 11.2832 17.0088C11.2833 17.1474 11.3338 17.2663 11.4336 17.3662L12.1504 18.0664C12.2504 18.1664 12.3667 18.2168 12.5 18.2168C12.6333 18.2168 12.7496 18.1664 12.8496 18.0664C12.9496 17.9664 13 17.8501 13 17.7168C13 17.5835 12.9496 17.4662 12.8496 17.3662L13.5664 16.6338C13.8997 16.9115 14.2725 17.1332 14.6836 17.2998C15.0947 17.4664 15.5334 17.5782 16 17.6338V18.667C15.8668 18.667 15.7503 18.7166 15.6504 18.8164C15.5504 18.9164 15.5 19.0337 15.5 19.167C15.5001 19.3002 15.5505 19.4167 15.6504 19.5166C15.7504 19.6165 15.8667 19.667 16 19.667H17C17.1333 19.667 17.2496 19.6165 17.3496 19.5166C17.4495 19.4167 17.4999 19.3002 17.5 19.167C17.5 19.0337 17.4496 18.9164 17.3496 18.8164C17.2497 18.7166 17.1332 18.667 17 18.667V17.6504C17.4666 17.5948 17.8999 17.4808 18.2998 17.3086C18.6998 17.1364 19.0726 16.9116 19.417 16.6338L20.1504 17.3662C20.0615 17.4662 20.0143 17.5835 20.0088 17.7168C20.0033 17.8501 20.0504 17.9664 20.1504 18.0664C20.2504 18.1664 20.3699 18.2168 20.5088 18.2168C20.6474 18.2167 20.7663 18.1662 20.8662 18.0664L21.5664 17.3662C21.6662 17.2663 21.7167 17.1474 21.7168 17.0088C21.7168 16.8699 21.6664 16.7504 21.5664 16.6504C21.4664 16.5504 21.3469 16.5 21.208 16.5C21.0693 16.5001 20.9495 16.5505 20.8496 16.6504L20.1338 15.9336C20.4115 15.5892 20.6332 15.214 20.7998 14.8086C20.9665 14.403 21.0782 13.9667 21.1338 13.5H22.167C22.167 13.6332 22.2166 13.7497 22.3164 13.8496C22.4164 13.9496 22.5337 14 22.667 14C22.8002 13.9999 22.9167 13.9495 23.0166 13.8496C23.1165 13.7496 23.167 13.6333 23.167 13.5V12.5C23.167 12.3667 23.1165 12.2504 23.0166 12.1504C22.9167 12.0505 22.8002 12.0001 22.667 12C22.5337 12 22.4164 12.0504 22.3164 12.1504C22.2166 12.2503 22.167 12.3668 22.167 12.5H21.1338C21.0782 12.0333 20.9665 11.597 20.7998 11.1914C20.6332 10.786 20.4115 10.4108 20.1338 10.0664L20.8496 9.34961C20.9495 9.44953 21.0693 9.49992 21.208 9.5C21.3469 9.5 21.4664 9.44961 21.5664 9.34961C21.6664 9.24962 21.7168 9.1333 21.7168 9C21.7168 8.8667 21.6664 8.75038 21.5664 8.65039L20.8662 7.93359C20.7663 7.83377 20.6474 7.78331 20.5088 7.7832C20.3699 7.7832 20.2504 7.83364 20.1504 7.93359C20.0504 8.03356 20 8.14992 20 8.2832C20 8.41654 20.0504 8.53379 20.1504 8.63379L19.417 9.36621C19.0726 9.08844 18.6998 8.86686 18.2998 8.7002C17.8998 8.53355 17.4666 8.42176 17 8.36621V7.33301C17.1332 7.33301 17.2497 7.28338 17.3496 7.18359C17.4496 7.08359 17.5 6.96634 17.5 6.83301C17.4999 6.69981 17.4495 6.58332 17.3496 6.4834C17.2496 6.38351 17.1333 6.33301 17 6.33301H16ZM15.333 14.333C15.5219 14.333 15.6808 14.3976 15.8086 14.5254C15.9362 14.6531 16 14.8113 16 15C16 15.1887 15.9362 15.3469 15.8086 15.4746C15.6808 15.6024 15.5219 15.667 15.333 15.667C15.1443 15.6669 14.9861 15.6023 14.8584 15.4746C14.7307 15.3469 14.667 15.1888 14.667 15C14.667 14.8112 14.7307 14.6531 14.8584 14.5254C14.9861 14.3977 15.1443 14.3331 15.333 14.333ZM17.667 14.333C17.8557 14.3331 18.0139 14.3977 18.1416 14.5254C18.2693 14.6531 18.333 14.8112 18.333 15C18.333 15.1888 18.2693 15.3469 18.1416 15.4746C18.0139 15.6023 17.8557 15.6669 17.667 15.667C17.4781 15.667 17.3192 15.6024 17.1914 15.4746C17.0638 15.3469 17 15.1887 17 15C17 14.8113 17.0638 14.6531 17.1914 14.5254C17.3192 14.3976 17.4781 14.333 17.667 14.333ZM14.167 12.333C14.3557 12.3331 14.5139 12.3977 14.6416 12.5254C14.7693 12.6531 14.833 12.8112 14.833 13C14.833 13.1888 14.7693 13.3469 14.6416 13.4746C14.5139 13.6023 14.3557 13.6669 14.167 13.667C13.9781 13.667 13.8192 13.6024 13.6914 13.4746C13.5638 13.3469 13.5 13.1887 13.5 13C13.5 12.8113 13.5638 12.6531 13.6914 12.5254C13.8192 12.3976 13.9781 12.333 14.167 12.333ZM16.5 12.333C16.6889 12.333 16.8468 12.3976 16.9746 12.5254C17.1024 12.6532 17.167 12.8111 17.167 13C17.167 13.1889 17.1024 13.3468 16.9746 13.4746C16.8468 13.6024 16.6889 13.667 16.5 13.667C16.3111 13.667 16.1532 13.6024 16.0254 13.4746C15.8976 13.3468 15.833 13.1889 15.833 13C15.833 12.8111 15.8976 12.6532 16.0254 12.5254C16.1532 12.3976 16.3111 12.333 16.5 12.333ZM18.833 12.333C19.0219 12.333 19.1808 12.3976 19.3086 12.5254C19.4362 12.6531 19.5 12.8113 19.5 13C19.5 13.1887 19.4362 13.3469 19.3086 13.4746C19.1808 13.6024 19.0219 13.667 18.833 13.667C18.6443 13.6669 18.4861 13.6023 18.3584 13.4746C18.2307 13.3469 18.167 13.1888 18.167 13C18.167 12.8112 18.2307 12.6531 18.3584 12.5254C18.4861 12.3977 18.6443 12.3331 18.833 12.333ZM15.333 10.333C15.5219 10.333 15.6808 10.3976 15.8086 10.5254C15.9362 10.6531 16 10.8113 16 11C16 11.1887 15.9362 11.3469 15.8086 11.4746C15.6808 11.6024 15.5219 11.667 15.333 11.667C15.1443 11.6669 14.9861 11.6023 14.8584 11.4746C14.7307 11.3469 14.667 11.1888 14.667 11C14.667 10.8112 14.7307 10.6531 14.8584 10.5254C14.9861 10.3977 15.1443 10.3331 15.333 10.333ZM17.667 10.333C17.8557 10.3331 18.0139 10.3977 18.1416 10.5254C18.2693 10.6531 18.333 10.8112 18.333 11C18.333 11.1888 18.2693 11.3469 18.1416 11.4746C18.0139 11.6023 17.8557 11.6669 17.667 11.667C17.4781 11.667 17.3192 11.6024 17.1914 11.4746C17.0638 11.3469 17 11.1887 17 11C17 10.8113 17.0638 10.6531 17.1914 10.5254C17.3192 10.3976 17.4781 10.333 17.667 10.333Z" fill="#3B67CE"/>
</svg>
