<svg width="33" height="32" viewBox="0 0 33 32" fill="none" xmlns="http://www.w3.org/2000/svg">
<path d="M9.83288 24H23.1662V12.4334L16.4995 7.33335L9.83288 12.4334V24ZM9.83288 26.6667C9.09954 26.6667 8.47177 26.4056 7.94954 25.8834C7.42732 25.3611 7.16621 24.7334 7.16621 24V14.4667L4.49954 16.5334C4.21066 16.7556 3.88288 16.8445 3.51621 16.8C3.14954 16.7556 2.8551 16.5778 2.63288 16.2667C2.41066 15.9778 2.32732 15.6556 2.38288 15.3C2.43843 14.9445 2.61066 14.6556 2.89954 14.4334L14.8662 5.23335C15.3551 4.85558 15.8995 4.66669 16.4995 4.66669C17.0995 4.66669 17.644 4.85558 18.1329 5.23335L30.0995 14.4C30.3884 14.6222 30.5607 14.9111 30.6162 15.2667C30.6718 15.6222 30.5884 15.9556 30.3662 16.2667C30.144 16.5778 29.8551 16.75 29.4995 16.7834C29.144 16.8167 28.8107 16.7222 28.4995 16.5L25.8329 14.4667V24C25.8329 24.7334 25.5718 25.3611 25.0495 25.8834C24.5273 26.4056 23.8995 26.6667 23.1662 26.6667H9.83288ZM16.4995 21.3334C17.2329 21.3334 17.8607 21.0722 18.3829 20.55C18.9051 20.0278 19.1662 19.4 19.1662 18.6667C19.1662 18.0667 18.9995 17.4278 18.6662 16.75C18.3329 16.0722 17.6107 14.9334 16.4995 13.3334C15.3884 14.9334 14.6662 16.0722 14.3329 16.75C13.9995 17.4278 13.8329 18.0667 13.8329 18.6667C13.8329 19.4 14.094 20.0278 14.6162 20.55C15.1384 21.0722 15.7662 21.3334 16.4995 21.3334Z" fill="#3B67CE"/>
</svg>
