<svg width="33" height="32" viewBox="0 0 33 32" fill="none" xmlns="http://www.w3.org/2000/svg">
<path d="M11.6188 13.1187C11.0313 13.7063 10.325 14 9.5 14C8.675 14 7.96875 13.7063 7.38125 13.1187C6.79375 12.5312 6.5 11.825 6.5 11C6.5 10.325 6.6875 9.60625 7.0625 8.84375C7.4375 8.08125 8.25 6.8 9.5 5C10.75 6.8 11.5625 8.08125 11.9375 8.84375C12.3125 9.60625 12.5 10.325 12.5 11C12.5 11.825 12.2063 12.5312 11.6188 13.1187Z" fill="#FF7F26"/>
<path d="M20.1338 10C20.4225 10 20.7058 10.0449 20.9834 10.1338C21.2611 10.2227 21.5222 10.3555 21.7666 10.5332L25.4668 13.3662V12.6338C25.4668 12.0783 25.661 11.6057 26.0498 11.2168C26.4387 10.8279 26.9112 10.6338 27.4668 10.6338C28.0223 10.6338 28.4949 10.8279 28.8838 11.2168C29.2725 11.6056 29.4668 12.0784 29.4668 12.6338V17.7744C29.4665 18.6023 28.5174 19.071 27.8594 18.5684L20.1338 12.667L12.5 18.4971V25C12.5 25.5523 12.0523 26 11.5 26H4.5C3.94772 26 3.5 25.5523 3.5 25V22.75C3.5 22.3358 3.83579 22 4.25 22C4.66421 22 5 22.3358 5 22.75V24.5H11V19.6436L8.13379 21.833C7.82279 22.0551 7.48919 22.1439 7.13379 22.0996C6.77823 22.0552 6.48882 21.8775 6.2666 21.5664C6.04449 21.2554 5.96106 20.9219 6.0166 20.5664C6.07219 20.211 6.24449 19.9223 6.5332 19.7002L18.5 10.5332C18.7444 10.3555 19.0055 10.2227 19.2832 10.1338C19.561 10.0449 19.8449 10 20.1338 10Z" fill="#FF7F26"/>
</svg>
