<svg width="33" height="32" viewBox="0 0 33 32" fill="none" xmlns="http://www.w3.org/2000/svg">
<path d="M9.83301 28C9.09967 28 8.4719 27.7389 7.94967 27.2167C7.42745 26.6944 7.16634 26.0667 7.16634 25.3333V8C6.78856 8 6.4719 7.87222 6.21634 7.61667C5.96079 7.36111 5.83301 7.04444 5.83301 6.66667C5.83301 6.28889 5.96079 5.97222 6.21634 5.71667C6.4719 5.46111 6.78856 5.33333 7.16634 5.33333H12.4997C12.4997 4.95556 12.6275 4.63889 12.883 4.38333C13.1386 4.12778 13.4552 4 13.833 4H19.1663C19.5441 4 19.8608 4.12778 20.1163 4.38333C20.3719 4.63889 20.4997 4.95556 20.4997 5.33333H25.833C26.2108 5.33333 26.5275 5.46111 26.783 5.71667C27.0386 5.97222 27.1663 6.28889 27.1663 6.66667C27.1663 7.04444 27.0386 7.36111 26.783 7.61667C26.5275 7.87222 26.2108 8 25.833 8V25.3333C25.833 26.0667 25.5719 26.6944 25.0497 27.2167C24.5275 27.7389 23.8997 28 23.1663 28H9.83301ZM23.1663 8H9.83301V25.3333H23.1663V8ZM13.833 22.6667C14.2108 22.6667 14.5275 22.5389 14.783 22.2833C15.0386 22.0278 15.1663 21.7111 15.1663 21.3333V12C15.1663 11.6222 15.0386 11.3056 14.783 11.05C14.5275 10.7944 14.2108 10.6667 13.833 10.6667C13.4552 10.6667 13.1386 10.7944 12.883 11.05C12.6275 11.3056 12.4997 11.6222 12.4997 12V21.3333C12.4997 21.7111 12.6275 22.0278 12.883 22.2833C13.1386 22.5389 13.4552 22.6667 13.833 22.6667ZM19.1663 22.6667C19.5441 22.6667 19.8608 22.5389 20.1163 22.2833C20.3719 22.0278 20.4997 21.7111 20.4997 21.3333V12C20.4997 11.6222 20.3719 11.3056 20.1163 11.05C19.8608 10.7944 19.5441 10.6667 19.1663 10.6667C18.7886 10.6667 18.4719 10.7944 18.2163 11.05C17.9608 11.3056 17.833 11.6222 17.833 12V21.3333C17.833 21.7111 17.9608 22.0278 18.2163 22.2833C18.4719 22.5389 18.7886 22.6667 19.1663 22.6667Z" fill="#ED1B24"/>
</svg>
