<svg width="33" height="32" viewBox="0 0 33 32" fill="none" xmlns="http://www.w3.org/2000/svg">
<path d="M20.7329 14.6667H13.5996C13.4885 14.9334 13.3552 15.1945 13.1996 15.45C13.0441 15.7056 12.8552 15.9222 12.6329 16.1L13.5996 26.6667H20.7329L21.6996 16.1C21.4774 15.9 21.2885 15.6778 21.1329 15.4334C20.9774 15.1889 20.8441 14.9334 20.7329 14.6667ZM13.2329 9.33335L12.8663 10.8C13.0218 10.9778 13.1607 11.1667 13.2829 11.3667C13.4052 11.5667 13.5107 11.7778 13.5996 12H20.7329C20.8218 11.7778 20.9274 11.5667 21.0496 11.3667C21.1718 11.1667 21.3107 10.9778 21.4663 10.8L21.0996 9.33335H13.2329ZM13.5996 29.3334C12.9107 29.3334 12.3107 29.1056 11.7996 28.65C11.2885 28.1945 10.9996 27.6222 10.9329 26.9334L9.89962 15.4C9.87739 15.1778 9.91628 14.9722 10.0163 14.7834C10.1163 14.5945 10.2663 14.4445 10.4663 14.3334C10.6441 14.2222 10.7996 14.0889 10.9329 13.9334C11.0663 13.7778 11.1329 13.5889 11.1329 13.3667C11.1329 13.1667 11.0885 12.9834 10.9996 12.8167C10.9107 12.65 10.7774 12.5111 10.5996 12.4C10.3774 12.2889 10.2107 12.1167 10.0996 11.8834C9.9885 11.65 9.96628 11.4111 10.0329 11.1667L10.8996 7.66669C10.9663 7.35558 11.1218 7.11113 11.3663 6.93335C11.6107 6.75558 11.8885 6.66669 12.1996 6.66669H15.8329V5.33335H15.1663C14.7885 5.33335 14.4718 5.20558 14.2163 4.95002C13.9607 4.69446 13.8329 4.3778 13.8329 4.00002C13.8329 3.62224 13.9607 3.30558 14.2163 3.05002C14.4718 2.79446 14.7885 2.66669 15.1663 2.66669H19.1663C19.5441 2.66669 19.8607 2.79446 20.1163 3.05002C20.3718 3.30558 20.4996 3.62224 20.4996 4.00002C20.4996 4.3778 20.3718 4.69446 20.1163 4.95002C19.8607 5.20558 19.5441 5.33335 19.1663 5.33335H18.4996V6.66669H22.1329C22.4441 6.66669 22.7163 6.75558 22.9496 6.93335C23.1829 7.11113 23.3329 7.35558 23.3996 7.66669L24.2996 11.1667C24.3663 11.4111 24.3441 11.65 24.2329 11.8834C24.1218 12.1167 23.9552 12.2889 23.7329 12.4C23.5552 12.4889 23.4163 12.6111 23.3163 12.7667C23.2163 12.9222 23.1663 13.1 23.1663 13.3C23.1663 13.5445 23.2274 13.75 23.3496 13.9167C23.4718 14.0834 23.6329 14.2222 23.8329 14.3334C24.0329 14.4445 24.1885 14.5945 24.2996 14.7834C24.4107 14.9722 24.4552 15.1778 24.433 15.4L23.3996 26.9C23.3329 27.5889 23.0441 28.1667 22.5329 28.6334C22.0218 29.1 21.4218 29.3334 20.7329 29.3334H13.5996Z" fill="#72777B"/>
</svg>
