<svg width="33" height="32" viewBox="0 0 33 32" fill="none" xmlns="http://www.w3.org/2000/svg">
<path d="M16.5 28C16.1222 28 15.8056 27.8722 15.55 27.6167C15.2944 27.3611 15.1667 27.0444 15.1667 26.6667V17.3667C13.7444 17.3667 12.3778 17.0944 11.0667 16.55C9.75556 16.0056 8.6 15.2333 7.6 14.2333C6.6 13.2333 5.83333 12.0778 5.3 10.7667C4.76667 9.45556 4.5 8.08889 4.5 6.66667V5.33333C4.5 4.95556 4.62778 4.63889 4.88333 4.38333C5.13889 4.12778 5.45556 4 5.83333 4H7.16667C8.56667 4 9.92222 4.27222 11.2333 4.81667C12.5444 5.36111 13.7 6.13333 14.7 7.13333C15.3889 7.82222 15.9611 8.57778 16.4167 9.4C16.8722 10.2222 17.2222 11.1 17.4667 12.0333C17.5778 11.8778 17.7 11.7278 17.8333 11.5833C17.9667 11.4389 18.1111 11.2889 18.2667 11.1333C19.2667 10.1333 20.4222 9.36111 21.7333 8.81667C23.0444 8.27222 24.4111 8 25.8333 8H27.1667C27.5444 8 27.8611 8.12778 28.1167 8.38333C28.3722 8.63889 28.5 8.95556 28.5 9.33333V10.6667C28.5 12.0889 28.2278 13.4556 27.6833 14.7667C27.1389 16.0778 26.3667 17.2333 25.3667 18.2333C24.3667 19.2333 23.2167 20 21.9167 20.5333C20.6167 21.0667 19.2556 21.3333 17.8333 21.3333V26.6667C17.8333 27.0444 17.7056 27.3611 17.45 27.6167C17.1944 27.8722 16.8778 28 16.5 28ZM15.1667 14.6667C15.1667 13.6 14.9611 12.5833 14.55 11.6167C14.1389 10.65 13.5556 9.78889 12.8 9.03333C12.0444 8.27778 11.1833 7.69444 10.2167 7.28333C9.25 6.87222 8.23333 6.66667 7.16667 6.66667C7.16667 7.73333 7.36667 8.75556 7.76667 9.73333C8.16667 10.7111 8.74444 11.5778 9.5 12.3333C10.2556 13.0889 11.1222 13.6667 12.1 14.0667C13.0778 14.4667 14.1 14.6667 15.1667 14.6667ZM17.8333 18.6667C18.9 18.6667 19.9167 18.4667 20.8833 18.0667C21.85 17.6667 22.7111 17.0889 23.4667 16.3333C24.2222 15.5778 24.8056 14.7111 25.2167 13.7333C25.6278 12.7556 25.8333 11.7333 25.8333 10.6667C24.7667 10.6667 23.7444 10.8722 22.7667 11.2833C21.7889 11.6944 20.9222 12.2778 20.1667 13.0333C19.4111 13.7889 18.8333 14.65 18.4333 15.6167C18.0333 16.5833 17.8333 17.6 17.8333 18.6667Z" fill="#29E549"/>
</svg>
