<svg width="33" height="32" viewBox="0 0 33 32" fill="none" xmlns="http://www.w3.org/2000/svg">
<path d="M13.167 4C13.9002 4.00008 14.527 4.26719 15.0469 4.78711C15.5667 5.30705 15.833 5.93381 15.833 6.66699V14.667H27.833C28.5663 14.667 29.1939 14.9331 29.7139 15.4531V15.4404C30.2336 15.9603 30.5 16.5872 30.5 17.3203V25.3203C30.4999 26.0535 30.2337 26.6803 29.7139 27.2002C29.1939 27.7202 28.5663 27.9863 27.833 27.9863H13.4434C13.353 27.9951 13.2609 28 13.167 28H5.16699C4.43366 28 3.80711 27.7329 3.28711 27.2129C2.76711 26.6929 2.5 26.0663 2.5 25.333V6.66699C2.5 5.93366 2.76711 5.30711 3.28711 4.78711C3.80711 4.26711 4.43366 4 5.16699 4H13.167ZM8.11328 8.4668C8.41987 8.7734 8.5663 9.10653 8.52637 9.45312C8.48637 9.79973 8.3532 10.093 8.11328 10.333C7.87329 10.573 7.58004 10.7201 7.2334 10.7734C6.88676 10.8268 6.56705 10.6797 6.24707 10.373L5.17969 9.30664V12.2129L8.11328 15.1465C8.41995 15.4532 8.56637 15.7871 8.52637 16.1338C8.4863 16.4802 8.35317 16.7738 8.11328 17.0137C7.87334 17.2535 7.57993 17.3998 7.2334 17.4531C6.88688 17.5064 6.56694 17.3601 6.24707 17.0537L5.17969 15.9863V18.8936L8.11328 21.8271C8.4198 22.1338 8.56636 22.4669 8.52637 22.8135C8.48634 23.1601 8.35324 23.4534 8.11328 23.6934C7.87329 23.9333 7.58005 24.0805 7.2334 24.1338C6.88682 24.1871 6.56699 24.0399 6.24707 23.7334L5.17969 22.667V25.333H13.167V22.667L12.0996 23.7334C11.793 24.0399 11.4599 24.1865 11.1133 24.1465C10.7667 24.1065 10.4734 23.9733 10.2334 23.7334C9.99351 23.4935 9.84708 23.1869 9.82031 22.8271C9.79365 22.4672 9.92688 22.1338 10.2334 21.8271L13.167 18.8936V15.9863L12.0996 17.0537C11.793 17.3601 11.4598 17.5068 11.1133 17.4668C10.7667 17.4268 10.4733 17.2936 10.2334 17.0537C9.9934 16.8137 9.84698 16.5065 9.82031 16.1465C9.7937 15.7865 9.92678 15.4531 10.2334 15.1465L13.167 12.2129V9.30664L12.0996 10.373C11.793 10.6797 11.4599 10.8271 11.1133 10.7871C10.7666 10.7471 10.4734 10.613 10.2334 10.373C9.9935 10.1331 9.84701 9.82668 9.82031 9.4668C9.79365 9.10681 9.92675 8.77345 10.2334 8.4668L12.0732 6.62695H6.27344L8.11328 8.4668ZM15.833 25.3203H18.5L17.4336 24.2529C17.127 23.933 16.9805 23.6132 17.0205 23.2666C17.0472 22.92 17.1936 22.6267 17.4336 22.3867C17.6736 22.1468 17.9672 22.0136 18.3271 21.9736C18.687 21.9338 19.0206 22.0802 19.3271 22.3867L22.2598 25.3203H25.1533L24.0869 24.2529C23.7803 23.933 23.6338 23.6132 23.6738 23.2666C23.7005 22.92 23.8469 22.6267 24.0869 22.3867C24.3269 22.1468 24.6205 22.0136 24.9805 21.9736C25.3403 21.9338 25.6739 22.0802 25.9805 22.3867L27.8203 24.2266V18.4268L25.9805 20.2666C25.6605 20.5733 25.3398 20.7064 24.9932 20.6797C24.6466 20.653 24.3532 20.5065 24.1133 20.2666C23.8733 20.0266 23.7265 19.7333 23.6865 19.3867C23.6465 19.0401 23.7803 18.707 24.0869 18.4004L25.1533 17.333H22.2598L19.3271 20.2666C19.0071 20.5733 18.6865 20.7064 18.3398 20.6797C17.9933 20.653 17.6999 20.5065 17.46 20.2666C17.22 20.0266 17.0732 19.7333 17.0332 19.3867C16.9932 19.0401 17.127 18.707 17.4336 18.4004L18.5 17.333H15.833V25.3203Z" fill="#0C0C0C"/>
</svg>
